<mxfile host="app.diagrams.net" modified="2023-10-07T13:53:02.339Z" agent="Mozilla/5.0 (Windows NT 10.0; Win64; x64) AppleWebKit/537.36 (KHTML, like Gecko) Chrome/117.0.0.0 Safari/537.36" etag="_O1PEuOKxYFg_-q8xJIV" version="22.0.4" type="device">
  <diagram name="Page-1" id="LUUm5zQ8WKBtmn_X2LVy">
    <mxGraphModel dx="545" dy="1250" grid="1" gridSize="10" guides="1" tooltips="1" connect="1" arrows="1" fold="1" page="1" pageScale="1" pageWidth="850" pageHeight="1100" math="0" shadow="0">
      <root>
        <mxCell id="0" />
        <mxCell id="1" parent="0" />
        <mxCell id="Gbu-jOdTarVuFErITB0x-1" value="1" style="rounded=0;whiteSpace=wrap;html=1;dashed=1;" vertex="1" parent="1">
          <mxGeometry x="210" y="630" width="20" height="20" as="geometry" />
        </mxCell>
        <mxCell id="Gbu-jOdTarVuFErITB0x-2" value="2" style="rounded=0;whiteSpace=wrap;html=1;dashed=1;" vertex="1" parent="1">
          <mxGeometry x="230" y="630" width="20" height="20" as="geometry" />
        </mxCell>
        <mxCell id="Gbu-jOdTarVuFErITB0x-3" value="3" style="rounded=0;whiteSpace=wrap;html=1;dashed=1;" vertex="1" parent="1">
          <mxGeometry x="250" y="630" width="20" height="20" as="geometry" />
        </mxCell>
        <mxCell id="Gbu-jOdTarVuFErITB0x-4" value="4" style="rounded=0;whiteSpace=wrap;html=1;dashed=1;" vertex="1" parent="1">
          <mxGeometry x="270" y="630" width="20" height="20" as="geometry" />
        </mxCell>
        <mxCell id="Gbu-jOdTarVuFErITB0x-9" value="5" style="rounded=0;whiteSpace=wrap;html=1;dashed=1;" vertex="1" parent="1">
          <mxGeometry x="290" y="630" width="20" height="20" as="geometry" />
        </mxCell>
        <mxCell id="Gbu-jOdTarVuFErITB0x-10" value="6" style="rounded=0;whiteSpace=wrap;html=1;dashed=1;" vertex="1" parent="1">
          <mxGeometry x="310" y="630" width="20" height="20" as="geometry" />
        </mxCell>
        <mxCell id="Gbu-jOdTarVuFErITB0x-11" value="7" style="rounded=0;whiteSpace=wrap;html=1;dashed=1;" vertex="1" parent="1">
          <mxGeometry x="330" y="630" width="20" height="20" as="geometry" />
        </mxCell>
        <mxCell id="Gbu-jOdTarVuFErITB0x-12" value="0" style="rounded=0;whiteSpace=wrap;html=1;dashed=1;" vertex="1" parent="1">
          <mxGeometry x="190" y="630" width="20" height="20" as="geometry" />
        </mxCell>
        <mxCell id="Gbu-jOdTarVuFErITB0x-13" value="1" style="rounded=0;whiteSpace=wrap;html=1;dashed=1;" vertex="1" parent="1">
          <mxGeometry x="210" y="650" width="20" height="20" as="geometry" />
        </mxCell>
        <mxCell id="Gbu-jOdTarVuFErITB0x-14" value="2" style="rounded=0;whiteSpace=wrap;html=1;dashed=1;" vertex="1" parent="1">
          <mxGeometry x="230" y="650" width="20" height="20" as="geometry" />
        </mxCell>
        <mxCell id="Gbu-jOdTarVuFErITB0x-15" value="3" style="rounded=0;whiteSpace=wrap;html=1;dashed=1;" vertex="1" parent="1">
          <mxGeometry x="250" y="650" width="20" height="20" as="geometry" />
        </mxCell>
        <mxCell id="Gbu-jOdTarVuFErITB0x-16" value="4" style="rounded=0;whiteSpace=wrap;html=1;dashed=1;" vertex="1" parent="1">
          <mxGeometry x="270" y="650" width="20" height="20" as="geometry" />
        </mxCell>
        <mxCell id="Gbu-jOdTarVuFErITB0x-17" value="5" style="rounded=0;whiteSpace=wrap;html=1;dashed=1;" vertex="1" parent="1">
          <mxGeometry x="290" y="650" width="20" height="20" as="geometry" />
        </mxCell>
        <mxCell id="Gbu-jOdTarVuFErITB0x-18" value="6" style="rounded=0;whiteSpace=wrap;html=1;dashed=1;" vertex="1" parent="1">
          <mxGeometry x="310" y="650" width="20" height="20" as="geometry" />
        </mxCell>
        <mxCell id="Gbu-jOdTarVuFErITB0x-19" value="7" style="rounded=0;whiteSpace=wrap;html=1;dashed=1;" vertex="1" parent="1">
          <mxGeometry x="330" y="650" width="20" height="20" as="geometry" />
        </mxCell>
        <mxCell id="Gbu-jOdTarVuFErITB0x-20" value="8" style="rounded=0;whiteSpace=wrap;html=1;dashed=1;" vertex="1" parent="1">
          <mxGeometry x="350" y="650" width="20" height="20" as="geometry" />
        </mxCell>
        <mxCell id="Gbu-jOdTarVuFErITB0x-29" value="row = i-1" style="text;html=1;align=center;verticalAlign=middle;resizable=0;points=[];autosize=1;strokeColor=none;fillColor=none;" vertex="1" parent="1">
          <mxGeometry x="85" y="678" width="70" height="30" as="geometry" />
        </mxCell>
        <mxCell id="Gbu-jOdTarVuFErITB0x-30" value="row = i" style="text;html=1;align=center;verticalAlign=middle;resizable=0;points=[];autosize=1;strokeColor=none;fillColor=none;" vertex="1" parent="1">
          <mxGeometry x="90" y="730" width="60" height="30" as="geometry" />
        </mxCell>
        <mxCell id="Gbu-jOdTarVuFErITB0x-31" value="row = i+1" style="text;html=1;align=center;verticalAlign=middle;resizable=0;points=[];autosize=1;strokeColor=none;fillColor=none;" vertex="1" parent="1">
          <mxGeometry x="85" y="780" width="70" height="30" as="geometry" />
        </mxCell>
        <mxCell id="Gbu-jOdTarVuFErITB0x-32" value="9" style="rounded=0;whiteSpace=wrap;html=1;dashed=1;" vertex="1" parent="1">
          <mxGeometry x="370" y="670" width="20" height="20" as="geometry" />
        </mxCell>
        <mxCell id="Gbu-jOdTarVuFErITB0x-33" value="2" style="rounded=0;whiteSpace=wrap;html=1;dashed=1;" vertex="1" parent="1">
          <mxGeometry x="230" y="670" width="20" height="20" as="geometry" />
        </mxCell>
        <mxCell id="Gbu-jOdTarVuFErITB0x-34" value="3" style="rounded=0;whiteSpace=wrap;html=1;dashed=1;" vertex="1" parent="1">
          <mxGeometry x="250" y="670" width="20" height="20" as="geometry" />
        </mxCell>
        <mxCell id="Gbu-jOdTarVuFErITB0x-35" value="4" style="rounded=0;whiteSpace=wrap;html=1;dashed=1;" vertex="1" parent="1">
          <mxGeometry x="270" y="670" width="20" height="20" as="geometry" />
        </mxCell>
        <mxCell id="Gbu-jOdTarVuFErITB0x-36" value="5" style="rounded=0;whiteSpace=wrap;html=1;dashed=1;" vertex="1" parent="1">
          <mxGeometry x="290" y="670" width="20" height="20" as="geometry" />
        </mxCell>
        <mxCell id="Gbu-jOdTarVuFErITB0x-37" value="6" style="rounded=0;whiteSpace=wrap;html=1;dashed=1;" vertex="1" parent="1">
          <mxGeometry x="310" y="670" width="20" height="20" as="geometry" />
        </mxCell>
        <mxCell id="Gbu-jOdTarVuFErITB0x-38" value="7" style="rounded=0;whiteSpace=wrap;html=1;dashed=1;" vertex="1" parent="1">
          <mxGeometry x="330" y="670" width="20" height="20" as="geometry" />
        </mxCell>
        <mxCell id="Gbu-jOdTarVuFErITB0x-39" value="8" style="rounded=0;whiteSpace=wrap;html=1;dashed=1;" vertex="1" parent="1">
          <mxGeometry x="350" y="670" width="20" height="20" as="geometry" />
        </mxCell>
        <mxCell id="Gbu-jOdTarVuFErITB0x-48" value="1" style="rounded=0;whiteSpace=wrap;html=1;dashed=1;" vertex="1" parent="1">
          <mxGeometry x="210" y="720" width="20" height="20" as="geometry" />
        </mxCell>
        <mxCell id="Gbu-jOdTarVuFErITB0x-49" value="2" style="rounded=0;whiteSpace=wrap;html=1;dashed=1;" vertex="1" parent="1">
          <mxGeometry x="230" y="720" width="20" height="20" as="geometry" />
        </mxCell>
        <mxCell id="Gbu-jOdTarVuFErITB0x-50" value="3" style="rounded=0;whiteSpace=wrap;html=1;dashed=1;" vertex="1" parent="1">
          <mxGeometry x="250" y="720" width="20" height="20" as="geometry" />
        </mxCell>
        <mxCell id="Gbu-jOdTarVuFErITB0x-51" value="4" style="rounded=0;whiteSpace=wrap;html=1;dashed=1;" vertex="1" parent="1">
          <mxGeometry x="270" y="720" width="20" height="20" as="geometry" />
        </mxCell>
        <mxCell id="Gbu-jOdTarVuFErITB0x-52" value="5" style="rounded=0;whiteSpace=wrap;html=1;dashed=1;" vertex="1" parent="1">
          <mxGeometry x="290" y="720" width="20" height="20" as="geometry" />
        </mxCell>
        <mxCell id="Gbu-jOdTarVuFErITB0x-53" value="6" style="rounded=0;whiteSpace=wrap;html=1;dashed=1;" vertex="1" parent="1">
          <mxGeometry x="310" y="720" width="20" height="20" as="geometry" />
        </mxCell>
        <mxCell id="Gbu-jOdTarVuFErITB0x-54" value="7" style="rounded=0;whiteSpace=wrap;html=1;dashed=1;" vertex="1" parent="1">
          <mxGeometry x="330" y="720" width="20" height="20" as="geometry" />
        </mxCell>
        <mxCell id="Gbu-jOdTarVuFErITB0x-55" value="0" style="rounded=0;whiteSpace=wrap;html=1;dashed=1;" vertex="1" parent="1">
          <mxGeometry x="190" y="720" width="20" height="20" as="geometry" />
        </mxCell>
        <mxCell id="Gbu-jOdTarVuFErITB0x-56" value="1" style="rounded=0;whiteSpace=wrap;html=1;dashed=1;" vertex="1" parent="1">
          <mxGeometry x="210" y="740" width="20" height="20" as="geometry" />
        </mxCell>
        <mxCell id="Gbu-jOdTarVuFErITB0x-57" value="2" style="rounded=0;whiteSpace=wrap;html=1;dashed=1;" vertex="1" parent="1">
          <mxGeometry x="230" y="740" width="20" height="20" as="geometry" />
        </mxCell>
        <mxCell id="Gbu-jOdTarVuFErITB0x-58" value="3" style="rounded=0;whiteSpace=wrap;html=1;dashed=1;" vertex="1" parent="1">
          <mxGeometry x="250" y="740" width="20" height="20" as="geometry" />
        </mxCell>
        <mxCell id="Gbu-jOdTarVuFErITB0x-59" value="4" style="rounded=0;whiteSpace=wrap;html=1;dashed=1;" vertex="1" parent="1">
          <mxGeometry x="270" y="740" width="20" height="20" as="geometry" />
        </mxCell>
        <mxCell id="Gbu-jOdTarVuFErITB0x-60" value="5" style="rounded=0;whiteSpace=wrap;html=1;dashed=1;" vertex="1" parent="1">
          <mxGeometry x="290" y="740" width="20" height="20" as="geometry" />
        </mxCell>
        <mxCell id="Gbu-jOdTarVuFErITB0x-61" value="6" style="rounded=0;whiteSpace=wrap;html=1;dashed=1;" vertex="1" parent="1">
          <mxGeometry x="310" y="740" width="20" height="20" as="geometry" />
        </mxCell>
        <mxCell id="Gbu-jOdTarVuFErITB0x-62" value="7" style="rounded=0;whiteSpace=wrap;html=1;dashed=1;" vertex="1" parent="1">
          <mxGeometry x="330" y="740" width="20" height="20" as="geometry" />
        </mxCell>
        <mxCell id="Gbu-jOdTarVuFErITB0x-63" value="8" style="rounded=0;whiteSpace=wrap;html=1;dashed=1;" vertex="1" parent="1">
          <mxGeometry x="350" y="740" width="20" height="20" as="geometry" />
        </mxCell>
        <mxCell id="Gbu-jOdTarVuFErITB0x-64" value="9" style="rounded=0;whiteSpace=wrap;html=1;dashed=1;" vertex="1" parent="1">
          <mxGeometry x="370" y="760" width="20" height="20" as="geometry" />
        </mxCell>
        <mxCell id="Gbu-jOdTarVuFErITB0x-65" value="2" style="rounded=0;whiteSpace=wrap;html=1;dashed=1;" vertex="1" parent="1">
          <mxGeometry x="230" y="760" width="20" height="20" as="geometry" />
        </mxCell>
        <mxCell id="Gbu-jOdTarVuFErITB0x-66" value="3" style="rounded=0;whiteSpace=wrap;html=1;dashed=1;" vertex="1" parent="1">
          <mxGeometry x="250" y="760" width="20" height="20" as="geometry" />
        </mxCell>
        <mxCell id="Gbu-jOdTarVuFErITB0x-67" value="4" style="rounded=0;whiteSpace=wrap;html=1;dashed=1;" vertex="1" parent="1">
          <mxGeometry x="270" y="760" width="20" height="20" as="geometry" />
        </mxCell>
        <mxCell id="Gbu-jOdTarVuFErITB0x-68" value="5" style="rounded=0;whiteSpace=wrap;html=1;dashed=1;" vertex="1" parent="1">
          <mxGeometry x="290" y="760" width="20" height="20" as="geometry" />
        </mxCell>
        <mxCell id="Gbu-jOdTarVuFErITB0x-69" value="6" style="rounded=0;whiteSpace=wrap;html=1;dashed=1;" vertex="1" parent="1">
          <mxGeometry x="310" y="760" width="20" height="20" as="geometry" />
        </mxCell>
        <mxCell id="Gbu-jOdTarVuFErITB0x-70" value="7" style="rounded=0;whiteSpace=wrap;html=1;dashed=1;" vertex="1" parent="1">
          <mxGeometry x="330" y="760" width="20" height="20" as="geometry" />
        </mxCell>
        <mxCell id="Gbu-jOdTarVuFErITB0x-71" value="8" style="rounded=0;whiteSpace=wrap;html=1;dashed=1;" vertex="1" parent="1">
          <mxGeometry x="350" y="760" width="20" height="20" as="geometry" />
        </mxCell>
        <mxCell id="Gbu-jOdTarVuFErITB0x-96" value="1" style="rounded=0;whiteSpace=wrap;html=1;dashed=1;" vertex="1" parent="1">
          <mxGeometry x="210" y="810" width="20" height="20" as="geometry" />
        </mxCell>
        <mxCell id="Gbu-jOdTarVuFErITB0x-97" value="2" style="rounded=0;whiteSpace=wrap;html=1;dashed=1;" vertex="1" parent="1">
          <mxGeometry x="230" y="810" width="20" height="20" as="geometry" />
        </mxCell>
        <mxCell id="Gbu-jOdTarVuFErITB0x-98" value="3" style="rounded=0;whiteSpace=wrap;html=1;dashed=1;" vertex="1" parent="1">
          <mxGeometry x="250" y="810" width="20" height="20" as="geometry" />
        </mxCell>
        <mxCell id="Gbu-jOdTarVuFErITB0x-99" value="4" style="rounded=0;whiteSpace=wrap;html=1;dashed=1;" vertex="1" parent="1">
          <mxGeometry x="270" y="810" width="20" height="20" as="geometry" />
        </mxCell>
        <mxCell id="Gbu-jOdTarVuFErITB0x-100" value="5" style="rounded=0;whiteSpace=wrap;html=1;dashed=1;" vertex="1" parent="1">
          <mxGeometry x="290" y="810" width="20" height="20" as="geometry" />
        </mxCell>
        <mxCell id="Gbu-jOdTarVuFErITB0x-101" value="6" style="rounded=0;whiteSpace=wrap;html=1;dashed=1;" vertex="1" parent="1">
          <mxGeometry x="310" y="810" width="20" height="20" as="geometry" />
        </mxCell>
        <mxCell id="Gbu-jOdTarVuFErITB0x-102" value="7" style="rounded=0;whiteSpace=wrap;html=1;dashed=1;" vertex="1" parent="1">
          <mxGeometry x="330" y="810" width="20" height="20" as="geometry" />
        </mxCell>
        <mxCell id="Gbu-jOdTarVuFErITB0x-103" value="0" style="rounded=0;whiteSpace=wrap;html=1;dashed=1;" vertex="1" parent="1">
          <mxGeometry x="190" y="810" width="20" height="20" as="geometry" />
        </mxCell>
        <mxCell id="Gbu-jOdTarVuFErITB0x-104" value="1" style="rounded=0;whiteSpace=wrap;html=1;dashed=1;" vertex="1" parent="1">
          <mxGeometry x="210" y="830" width="20" height="20" as="geometry" />
        </mxCell>
        <mxCell id="Gbu-jOdTarVuFErITB0x-105" value="2" style="rounded=0;whiteSpace=wrap;html=1;dashed=1;" vertex="1" parent="1">
          <mxGeometry x="230" y="830" width="20" height="20" as="geometry" />
        </mxCell>
        <mxCell id="Gbu-jOdTarVuFErITB0x-106" value="3" style="rounded=0;whiteSpace=wrap;html=1;dashed=1;" vertex="1" parent="1">
          <mxGeometry x="250" y="830" width="20" height="20" as="geometry" />
        </mxCell>
        <mxCell id="Gbu-jOdTarVuFErITB0x-107" value="4" style="rounded=0;whiteSpace=wrap;html=1;dashed=1;" vertex="1" parent="1">
          <mxGeometry x="270" y="830" width="20" height="20" as="geometry" />
        </mxCell>
        <mxCell id="Gbu-jOdTarVuFErITB0x-108" value="5" style="rounded=0;whiteSpace=wrap;html=1;dashed=1;" vertex="1" parent="1">
          <mxGeometry x="290" y="830" width="20" height="20" as="geometry" />
        </mxCell>
        <mxCell id="Gbu-jOdTarVuFErITB0x-109" value="6" style="rounded=0;whiteSpace=wrap;html=1;dashed=1;" vertex="1" parent="1">
          <mxGeometry x="310" y="830" width="20" height="20" as="geometry" />
        </mxCell>
        <mxCell id="Gbu-jOdTarVuFErITB0x-110" value="7" style="rounded=0;whiteSpace=wrap;html=1;dashed=1;" vertex="1" parent="1">
          <mxGeometry x="330" y="830" width="20" height="20" as="geometry" />
        </mxCell>
        <mxCell id="Gbu-jOdTarVuFErITB0x-111" value="8" style="rounded=0;whiteSpace=wrap;html=1;dashed=1;" vertex="1" parent="1">
          <mxGeometry x="350" y="830" width="20" height="20" as="geometry" />
        </mxCell>
        <mxCell id="Gbu-jOdTarVuFErITB0x-112" value="9" style="rounded=0;whiteSpace=wrap;html=1;dashed=1;" vertex="1" parent="1">
          <mxGeometry x="370" y="850" width="20" height="20" as="geometry" />
        </mxCell>
        <mxCell id="Gbu-jOdTarVuFErITB0x-113" value="2" style="rounded=0;whiteSpace=wrap;html=1;dashed=1;" vertex="1" parent="1">
          <mxGeometry x="230" y="850" width="20" height="20" as="geometry" />
        </mxCell>
        <mxCell id="Gbu-jOdTarVuFErITB0x-114" value="3" style="rounded=0;whiteSpace=wrap;html=1;dashed=1;" vertex="1" parent="1">
          <mxGeometry x="250" y="850" width="20" height="20" as="geometry" />
        </mxCell>
        <mxCell id="Gbu-jOdTarVuFErITB0x-115" value="4" style="rounded=0;whiteSpace=wrap;html=1;dashed=1;" vertex="1" parent="1">
          <mxGeometry x="270" y="850" width="20" height="20" as="geometry" />
        </mxCell>
        <mxCell id="Gbu-jOdTarVuFErITB0x-116" value="5" style="rounded=0;whiteSpace=wrap;html=1;dashed=1;" vertex="1" parent="1">
          <mxGeometry x="290" y="850" width="20" height="20" as="geometry" />
        </mxCell>
        <mxCell id="Gbu-jOdTarVuFErITB0x-117" value="6" style="rounded=0;whiteSpace=wrap;html=1;dashed=1;" vertex="1" parent="1">
          <mxGeometry x="310" y="850" width="20" height="20" as="geometry" />
        </mxCell>
        <mxCell id="Gbu-jOdTarVuFErITB0x-118" value="7" style="rounded=0;whiteSpace=wrap;html=1;dashed=1;" vertex="1" parent="1">
          <mxGeometry x="330" y="850" width="20" height="20" as="geometry" />
        </mxCell>
        <mxCell id="Gbu-jOdTarVuFErITB0x-119" value="8" style="rounded=0;whiteSpace=wrap;html=1;dashed=1;" vertex="1" parent="1">
          <mxGeometry x="350" y="850" width="20" height="20" as="geometry" />
        </mxCell>
        <mxCell id="Gbu-jOdTarVuFErITB0x-148" value="" style="endArrow=classic;html=1;rounded=0;exitX=0.533;exitY=1.178;exitDx=0;exitDy=0;exitPerimeter=0;strokeColor=#8a10a2;" edge="1" parent="1" source="Gbu-jOdTarVuFErITB0x-12" target="Gbu-jOdTarVuFErITB0x-56">
          <mxGeometry width="50" height="50" relative="1" as="geometry">
            <mxPoint x="240" y="800" as="sourcePoint" />
            <mxPoint x="290" y="750" as="targetPoint" />
          </mxGeometry>
        </mxCell>
        <mxCell id="Gbu-jOdTarVuFErITB0x-149" value="" style="endArrow=classic;html=1;rounded=0;exitX=0.5;exitY=1;exitDx=0;exitDy=0;strokeColor=#8a10a2;entryX=0.5;entryY=0;entryDx=0;entryDy=0;" edge="1" parent="1" source="Gbu-jOdTarVuFErITB0x-13" target="Gbu-jOdTarVuFErITB0x-56">
          <mxGeometry width="50" height="50" relative="1" as="geometry">
            <mxPoint x="211" y="664" as="sourcePoint" />
            <mxPoint x="228" y="750" as="targetPoint" />
          </mxGeometry>
        </mxCell>
        <mxCell id="Gbu-jOdTarVuFErITB0x-150" value="" style="endArrow=classic;html=1;rounded=0;exitX=0.5;exitY=1;exitDx=0;exitDy=0;strokeColor=#8a10a2;entryX=0.5;entryY=0;entryDx=0;entryDy=0;" edge="1" parent="1" source="Gbu-jOdTarVuFErITB0x-33" target="Gbu-jOdTarVuFErITB0x-56">
          <mxGeometry width="50" height="50" relative="1" as="geometry">
            <mxPoint x="230" y="680" as="sourcePoint" />
            <mxPoint x="230" y="750" as="targetPoint" />
          </mxGeometry>
        </mxCell>
        <mxCell id="Gbu-jOdTarVuFErITB0x-151" value="" style="endArrow=classic;html=1;rounded=0;exitX=0.5;exitY=1;exitDx=0;exitDy=0;strokeColor=#8a10a2;entryX=0;entryY=0.5;entryDx=0;entryDy=0;" edge="1" parent="1" source="Gbu-jOdTarVuFErITB0x-55" target="Gbu-jOdTarVuFErITB0x-56">
          <mxGeometry width="50" height="50" relative="1" as="geometry">
            <mxPoint x="250" y="700" as="sourcePoint" />
            <mxPoint x="230" y="750" as="targetPoint" />
          </mxGeometry>
        </mxCell>
        <mxCell id="Gbu-jOdTarVuFErITB0x-152" value="" style="endArrow=classic;html=1;rounded=0;exitX=0;exitY=0.5;exitDx=0;exitDy=0;strokeColor=#8a10a2;entryX=0.5;entryY=1;entryDx=0;entryDy=0;" edge="1" parent="1" source="Gbu-jOdTarVuFErITB0x-65" target="Gbu-jOdTarVuFErITB0x-56">
          <mxGeometry width="50" height="50" relative="1" as="geometry">
            <mxPoint x="260" y="710" as="sourcePoint" />
            <mxPoint x="240" y="760" as="targetPoint" />
          </mxGeometry>
        </mxCell>
        <mxCell id="Gbu-jOdTarVuFErITB0x-154" value="" style="endArrow=classic;html=1;rounded=0;exitX=0.5;exitY=0;exitDx=0;exitDy=0;strokeColor=#8a10a2;entryX=0.5;entryY=1;entryDx=0;entryDy=0;" edge="1" parent="1" source="Gbu-jOdTarVuFErITB0x-103" target="Gbu-jOdTarVuFErITB0x-56">
          <mxGeometry width="50" height="50" relative="1" as="geometry">
            <mxPoint x="250" y="700" as="sourcePoint" />
            <mxPoint x="230" y="750" as="targetPoint" />
          </mxGeometry>
        </mxCell>
        <mxCell id="Gbu-jOdTarVuFErITB0x-155" value="" style="endArrow=classic;html=1;rounded=0;exitX=0.5;exitY=1;exitDx=0;exitDy=0;strokeColor=#8a10a2;" edge="1" parent="1" source="Gbu-jOdTarVuFErITB0x-96">
          <mxGeometry width="50" height="50" relative="1" as="geometry">
            <mxPoint x="210" y="820" as="sourcePoint" />
            <mxPoint x="220" y="760" as="targetPoint" />
          </mxGeometry>
        </mxCell>
        <mxCell id="Gbu-jOdTarVuFErITB0x-156" value="" style="endArrow=classic;html=1;rounded=0;exitX=0.578;exitY=1.156;exitDx=0;exitDy=0;strokeColor=#8a10a2;exitPerimeter=0;" edge="1" parent="1" source="Gbu-jOdTarVuFErITB0x-105">
          <mxGeometry width="50" height="50" relative="1" as="geometry">
            <mxPoint x="230" y="840" as="sourcePoint" />
            <mxPoint x="220" y="760" as="targetPoint" />
          </mxGeometry>
        </mxCell>
        <mxCell id="Gbu-jOdTarVuFErITB0x-157" value="" style="endArrow=classic;html=1;rounded=0;exitX=0.533;exitY=1.178;exitDx=0;exitDy=0;exitPerimeter=0;strokeColor=#00CCCC;" edge="1" parent="1">
          <mxGeometry width="50" height="50" relative="1" as="geometry">
            <mxPoint x="341" y="660" as="sourcePoint" />
            <mxPoint x="358" y="746" as="targetPoint" />
          </mxGeometry>
        </mxCell>
        <mxCell id="Gbu-jOdTarVuFErITB0x-158" value="" style="endArrow=classic;html=1;rounded=0;exitX=0.5;exitY=1;exitDx=0;exitDy=0;strokeColor=#00CCCC;entryX=0.5;entryY=0;entryDx=0;entryDy=0;" edge="1" parent="1">
          <mxGeometry width="50" height="50" relative="1" as="geometry">
            <mxPoint x="360" y="676" as="sourcePoint" />
            <mxPoint x="360" y="746" as="targetPoint" />
          </mxGeometry>
        </mxCell>
        <mxCell id="Gbu-jOdTarVuFErITB0x-159" value="" style="endArrow=classic;html=1;rounded=0;exitX=0.5;exitY=1;exitDx=0;exitDy=0;strokeColor=#00CCCC;entryX=0.5;entryY=0;entryDx=0;entryDy=0;" edge="1" parent="1">
          <mxGeometry width="50" height="50" relative="1" as="geometry">
            <mxPoint x="380" y="696" as="sourcePoint" />
            <mxPoint x="360" y="746" as="targetPoint" />
          </mxGeometry>
        </mxCell>
        <mxCell id="Gbu-jOdTarVuFErITB0x-160" value="" style="endArrow=classic;html=1;rounded=0;exitX=0.5;exitY=1;exitDx=0;exitDy=0;strokeColor=#00CCCC;entryX=0;entryY=0.5;entryDx=0;entryDy=0;" edge="1" parent="1">
          <mxGeometry width="50" height="50" relative="1" as="geometry">
            <mxPoint x="340" y="746" as="sourcePoint" />
            <mxPoint x="350" y="756" as="targetPoint" />
          </mxGeometry>
        </mxCell>
        <mxCell id="Gbu-jOdTarVuFErITB0x-161" value="" style="endArrow=classic;html=1;rounded=0;exitX=0;exitY=0.5;exitDx=0;exitDy=0;strokeColor=#00CCCC;entryX=0.5;entryY=1;entryDx=0;entryDy=0;" edge="1" parent="1">
          <mxGeometry width="50" height="50" relative="1" as="geometry">
            <mxPoint x="370" y="776" as="sourcePoint" />
            <mxPoint x="360" y="766" as="targetPoint" />
          </mxGeometry>
        </mxCell>
        <mxCell id="Gbu-jOdTarVuFErITB0x-162" value="" style="endArrow=classic;html=1;rounded=0;exitX=0.5;exitY=0;exitDx=0;exitDy=0;strokeColor=#00CCCC;entryX=0.5;entryY=1;entryDx=0;entryDy=0;" edge="1" parent="1">
          <mxGeometry width="50" height="50" relative="1" as="geometry">
            <mxPoint x="340" y="816" as="sourcePoint" />
            <mxPoint x="360" y="766" as="targetPoint" />
          </mxGeometry>
        </mxCell>
        <mxCell id="Gbu-jOdTarVuFErITB0x-163" value="" style="endArrow=classic;html=1;rounded=0;exitX=0.5;exitY=1;exitDx=0;exitDy=0;strokeColor=#00CCCC;" edge="1" parent="1">
          <mxGeometry width="50" height="50" relative="1" as="geometry">
            <mxPoint x="360" y="836" as="sourcePoint" />
            <mxPoint x="360" y="766" as="targetPoint" />
          </mxGeometry>
        </mxCell>
        <mxCell id="Gbu-jOdTarVuFErITB0x-164" value="" style="endArrow=classic;html=1;rounded=0;exitX=0.578;exitY=1.156;exitDx=0;exitDy=0;strokeColor=#00CCCC;exitPerimeter=0;" edge="1" parent="1">
          <mxGeometry width="50" height="50" relative="1" as="geometry">
            <mxPoint x="382" y="859" as="sourcePoint" />
            <mxPoint x="360" y="766" as="targetPoint" />
          </mxGeometry>
        </mxCell>
        <mxCell id="Gbu-jOdTarVuFErITB0x-165" value="" style="endArrow=classic;html=1;rounded=0;exitX=0.533;exitY=1.178;exitDx=0;exitDy=0;exitPerimeter=0;strokeColor=#FF8000;" edge="1" parent="1">
          <mxGeometry width="50" height="50" relative="1" as="geometry">
            <mxPoint x="261" y="651" as="sourcePoint" />
            <mxPoint x="278" y="737" as="targetPoint" />
          </mxGeometry>
        </mxCell>
        <mxCell id="Gbu-jOdTarVuFErITB0x-166" value="" style="endArrow=classic;html=1;rounded=0;exitX=0.5;exitY=1;exitDx=0;exitDy=0;strokeColor=#FF8000;entryX=0.5;entryY=0;entryDx=0;entryDy=0;" edge="1" parent="1">
          <mxGeometry width="50" height="50" relative="1" as="geometry">
            <mxPoint x="280" y="667" as="sourcePoint" />
            <mxPoint x="280" y="737" as="targetPoint" />
          </mxGeometry>
        </mxCell>
        <mxCell id="Gbu-jOdTarVuFErITB0x-167" value="" style="endArrow=classic;html=1;rounded=0;exitX=0.5;exitY=1;exitDx=0;exitDy=0;strokeColor=#FF8000;entryX=0.5;entryY=0;entryDx=0;entryDy=0;" edge="1" parent="1">
          <mxGeometry width="50" height="50" relative="1" as="geometry">
            <mxPoint x="300" y="687" as="sourcePoint" />
            <mxPoint x="280" y="737" as="targetPoint" />
          </mxGeometry>
        </mxCell>
        <mxCell id="Gbu-jOdTarVuFErITB0x-168" value="" style="endArrow=classic;html=1;rounded=0;exitX=0.5;exitY=1;exitDx=0;exitDy=0;strokeColor=#FF8000;entryX=0;entryY=0.5;entryDx=0;entryDy=0;" edge="1" parent="1">
          <mxGeometry width="50" height="50" relative="1" as="geometry">
            <mxPoint x="260" y="737" as="sourcePoint" />
            <mxPoint x="270" y="747" as="targetPoint" />
          </mxGeometry>
        </mxCell>
        <mxCell id="Gbu-jOdTarVuFErITB0x-169" value="" style="endArrow=classic;html=1;rounded=0;exitX=0;exitY=0.5;exitDx=0;exitDy=0;strokeColor=#FF8000;entryX=0.5;entryY=1;entryDx=0;entryDy=0;" edge="1" parent="1">
          <mxGeometry width="50" height="50" relative="1" as="geometry">
            <mxPoint x="290" y="767" as="sourcePoint" />
            <mxPoint x="280" y="757" as="targetPoint" />
          </mxGeometry>
        </mxCell>
        <mxCell id="Gbu-jOdTarVuFErITB0x-170" value="" style="endArrow=classic;html=1;rounded=0;exitX=0.5;exitY=0;exitDx=0;exitDy=0;strokeColor=#FF8000;entryX=0.5;entryY=1;entryDx=0;entryDy=0;" edge="1" parent="1">
          <mxGeometry width="50" height="50" relative="1" as="geometry">
            <mxPoint x="260" y="807" as="sourcePoint" />
            <mxPoint x="280" y="757" as="targetPoint" />
          </mxGeometry>
        </mxCell>
        <mxCell id="Gbu-jOdTarVuFErITB0x-171" value="" style="endArrow=classic;html=1;rounded=0;exitX=0.5;exitY=1;exitDx=0;exitDy=0;strokeColor=#FF8000;" edge="1" parent="1">
          <mxGeometry width="50" height="50" relative="1" as="geometry">
            <mxPoint x="280" y="827" as="sourcePoint" />
            <mxPoint x="280" y="757" as="targetPoint" />
          </mxGeometry>
        </mxCell>
        <mxCell id="Gbu-jOdTarVuFErITB0x-172" value="" style="endArrow=classic;html=1;rounded=0;exitX=0.578;exitY=1.156;exitDx=0;exitDy=0;strokeColor=#FF8000;exitPerimeter=0;" edge="1" parent="1">
          <mxGeometry width="50" height="50" relative="1" as="geometry">
            <mxPoint x="302" y="850" as="sourcePoint" />
            <mxPoint x="280" y="757" as="targetPoint" />
          </mxGeometry>
        </mxCell>
        <mxCell id="Gbu-jOdTarVuFErITB0x-173" value="" style="group" vertex="1" connectable="0" parent="1">
          <mxGeometry x="85" y="900" width="220" height="53" as="geometry" />
        </mxCell>
        <mxCell id="Gbu-jOdTarVuFErITB0x-137" value="" style="rounded=0;whiteSpace=wrap;html=1;dashed=1;" vertex="1" parent="Gbu-jOdTarVuFErITB0x-173">
          <mxGeometry x="80" y="5" width="20" height="20" as="geometry" />
        </mxCell>
        <mxCell id="Gbu-jOdTarVuFErITB0x-138" value="" style="rounded=0;whiteSpace=wrap;html=1;dashed=1;" vertex="1" parent="Gbu-jOdTarVuFErITB0x-173">
          <mxGeometry x="100" y="5" width="20" height="20" as="geometry" />
        </mxCell>
        <mxCell id="Gbu-jOdTarVuFErITB0x-139" value="" style="rounded=0;whiteSpace=wrap;html=1;dashed=1;" vertex="1" parent="Gbu-jOdTarVuFErITB0x-173">
          <mxGeometry x="120" y="5" width="20" height="20" as="geometry" />
        </mxCell>
        <mxCell id="Gbu-jOdTarVuFErITB0x-140" value="" style="rounded=0;whiteSpace=wrap;html=1;dashed=1;" vertex="1" parent="Gbu-jOdTarVuFErITB0x-173">
          <mxGeometry x="140" y="5" width="20" height="20" as="geometry" />
        </mxCell>
        <mxCell id="Gbu-jOdTarVuFErITB0x-141" value="" style="rounded=0;whiteSpace=wrap;html=1;dashed=1;" vertex="1" parent="Gbu-jOdTarVuFErITB0x-173">
          <mxGeometry x="160" y="5" width="20" height="20" as="geometry" />
        </mxCell>
        <mxCell id="Gbu-jOdTarVuFErITB0x-142" value="" style="rounded=0;whiteSpace=wrap;html=1;dashed=1;" vertex="1" parent="Gbu-jOdTarVuFErITB0x-173">
          <mxGeometry x="180" y="5" width="20" height="20" as="geometry" />
        </mxCell>
        <mxCell id="Gbu-jOdTarVuFErITB0x-143" value="" style="rounded=0;whiteSpace=wrap;html=1;dashed=1;" vertex="1" parent="Gbu-jOdTarVuFErITB0x-173">
          <mxGeometry x="200" y="5" width="20" height="20" as="geometry" />
        </mxCell>
        <mxCell id="Gbu-jOdTarVuFErITB0x-144" value="" style="rounded=0;whiteSpace=wrap;html=1;dashed=1;" vertex="1" parent="Gbu-jOdTarVuFErITB0x-173">
          <mxGeometry x="60" y="5" width="20" height="20" as="geometry" />
        </mxCell>
        <mxCell id="Gbu-jOdTarVuFErITB0x-145" value="registor" style="text;html=1;align=center;verticalAlign=middle;resizable=0;points=[];autosize=1;strokeColor=none;fillColor=none;" vertex="1" parent="Gbu-jOdTarVuFErITB0x-173">
          <mxGeometry width="60" height="30" as="geometry" />
        </mxCell>
        <mxCell id="Gbu-jOdTarVuFErITB0x-146" value="" style="shape=curlyBracket;whiteSpace=wrap;html=1;rounded=1;labelPosition=left;verticalLabelPosition=middle;align=right;verticalAlign=middle;rotation=-90;" vertex="1" parent="Gbu-jOdTarVuFErITB0x-173">
          <mxGeometry x="65" y="20" width="10" height="20" as="geometry" />
        </mxCell>
        <mxCell id="Gbu-jOdTarVuFErITB0x-147" value="1byte" style="text;html=1;align=center;verticalAlign=middle;resizable=0;points=[];autosize=1;strokeColor=none;fillColor=none;" vertex="1" parent="Gbu-jOdTarVuFErITB0x-173">
          <mxGeometry x="45" y="23" width="50" height="30" as="geometry" />
        </mxCell>
      </root>
    </mxGraphModel>
  </diagram>
</mxfile>
